<svg xmlns="http://www.w3.org/2000/svg" viewBox="0 0 512 512" id="upi-money-transfer">
  <path fill="#24b378" d="M422.94 474.5v-8.97a6.005 6.005 0 0 0-6-6H288a5.998 5.998 0 0 1-6-6v-61.18a5.998 5.998 0 0 1 6-6h128.94a6.005 6.005 0 0 0 6-6v-8.97l51.56 51.56Z"></path>
  <path fill="#24b378" d="m500.26 427.18-67.08 67.08a6 6 0 0 1-10.24-4.25V474.5l51.56-51.56-51.56-51.56v-15.52a5.998 5.998 0 0 1 10.24-4.24l67.08 67.08a6 6 0 0 1 0 8.48Z"></path>
  <path fill="#19ac66" d="m500.26 427.18-67.08 67.08a6 6 0 0 1-10.24-4.25V474.5l51.56-51.56-51.56-51.56v-15.52a5.998 5.998 0 0 1 10.24-4.24l67.08 67.08a6 6 0 0 1 0 8.48Z"></path>
  <path fill="#24b378" d="M225 125.652H95.06a6 6 0 0 0-6 6v24.483a6 6 0 0 1-10.242 4.243L11.743 93.303a6 6 0 0 1 0-8.485l67.075-67.075a6 6 0 0 1 10.242 4.242v24.483a6 6 0 0 0 6 6H225a6 6 0 0 1 6 6v61.184a6 6 0 0 1-6 6Z"></path>
  <circle cx="256" cy="256" r="155" fill="#fff"></circle>
  <path fill="#eaeaea" d="M256 101a156.241 156.241 0 0 0-22.5 1.631 155.012 155.012 0 0 1 0 306.738A155.005 155.005 0 1 0 256 101Z"></path>
  <path fill="#fddd5a" d="M256 418.5c-89.603 0-162.5-72.897-162.5-162.5S166.397 93.5 256 93.5 418.5 166.397 418.5 256 345.603 418.5 256 418.5Zm0-310c-81.332 0-147.5 66.168-147.5 147.5S174.668 403.5 256 403.5 403.5 337.332 403.5 256 337.332 108.5 256 108.5Z"></path>
  <path fill="#24b378" d="m338.566 259.433-81.327 77.885a4.754 4.754 0 0 1-8.041-3.434V178.116a4.754 4.754 0 0 1 8.041-3.434l81.327 77.885a4.754 4.754 0 0 1 0 6.866Z"></path>
  <path fill="#19ac66" d="m338.566 252.567-81.327-77.885a4.754 4.754 0 0 0-8.041 3.434v3.23l74.368 71.22a4.754 4.754 0 0 1 0 6.867l-74.368 71.22v3.231a4.754 4.754 0 0 0 8.041 3.434l81.327-77.885a4.754 4.754 0 0 0 0-6.866Z"></path>
  <path fill="#f9a242" d="m291.337 259.433-81.327 77.885a4.754 4.754 0 0 1-8.042-3.434V178.116a4.754 4.754 0 0 1 8.042-3.434l81.327 77.885a4.754 4.754 0 0 1 0 6.866Z"></path>
  <path fill="#f69531" d="m291.336 252.567-81.326-77.885a4.754 4.754 0 0 0-8.042 3.434v3.23l74.368 71.22a4.753 4.753 0 0 1 0 6.867l-74.368 71.22v3.231a4.754 4.754 0 0 0 8.042 3.434l81.326-77.885a4.753 4.753 0 0 0 0-6.866Z"></path>
</svg>
